<svg xmlns="http://www.w3.org/2000/svg" viewBox="0 0 1200 700">
<defs>
 <linearGradient id="sky" x1="0" y1="0" x2="0" y2="1"><stop stop-color="#071a35"/><stop offset=".55" stop-color="#0b3150"/><stop offset="1" stop-color="#06111f"/></linearGradient>
 <radialGradient id="glow"><stop stop-color="#6ee7ff" stop-opacity=".8"/><stop offset="1" stop-color="#6ee7ff" stop-opacity="0"/></radialGradient>
 <linearGradient id="grass" x1="0" y1="0" x2="1" y2="1"><stop stop-color="#073d32"/><stop offset=".5" stop-color="#0b6b48"/><stop offset="1" stop-color="#031f1c"/></linearGradient>
 <linearGradient id="ball" x1="0" y1="0" x2="1" y2="1"><stop stop-color="#fff"/><stop offset="1" stop-color="#aab7c8"/></linearGradient>
 <filter id="blur"><feGaussianBlur stdDeviation="28"/></filter>
</defs>
<rect width="1200" height="700" fill="url(#sky)"/>
<ellipse cx="180" cy="170" rx="240" ry="190" fill="url(#glow)" filter="url(#blur)"/>
<ellipse cx="1020" cy="155" rx="260" ry="190" fill="url(#glow)" filter="url(#blur)"/>
<g fill="#e9f7ff" opacity=".85">
 <circle cx="80" cy="120" r="5"/><circle cx="160" cy="95" r="4"/><circle cx="260" cy="145" r="5"/>
 <circle cx="950" cy="100" r="5"/><circle cx="1070" cy="130" r="4"/><circle cx="1150" cy="90" r="5"/>
</g>
<path d="M0 430 Q200 330 400 420 T800 410 T1200 400 V700 H0Z" fill="url(#grass)"/>
<path d="M0 525 Q300 455 600 520 T1200 500" fill="none" stroke="#a7f3d0" stroke-opacity=".28" stroke-width="3"/>
<path d="M600 410 L600 700 M250 475 L950 475 M280 700 L360 525 L840 525 L920 700" fill="none" stroke="#d1fae5" stroke-opacity=".22" stroke-width="4"/>
<g opacity=".75">
 <path d="M120 395 L155 250 M185 395 L155 250 M1045 395 L1080 250 M1110 395 L1080 250" stroke="#dff8ff" stroke-width="10"/>
 <path d="M155 250 L1080 250" stroke="#dff8ff" stroke-width="8"/>
</g>
<g transform="translate(600 535)">
 <circle r="94" fill="#000" opacity=".25"/>
 <circle r="78" fill="url(#ball)" stroke="#fff" stroke-width="5"/>
 <path d="M0-22 L27-8 22 24 0 38-22 24-27-8Z" fill="#111827"/>
 <path d="M0-22 L-7-52 M27-8 L53-20 M22 24 L42 47 M-22 24 L-43 45 M-27-8 L-53-20" stroke="#111827" stroke-width="10" fill="none"/>
</g>
</svg>